<svg xmlns="http://www.w3.org/2000/svg" fill="#ffff" width="109.902" height="27.627" viewBox="0 0 109.902 27.627">
<path d="M31.842,21.076a21.335,21.335,0,0,1-7.1,1.243c-2.669,0-4.549-.607-5.671-1.82a7.387,7.387,0,0,1-1.668-5.216V6.307h5.155v9.007c0,1.82.788,2.729,2.335,2.729a4.928,4.928,0,0,0,1.789-.3V6.307h5.155V21.076m3.609,6.551-.758-4.367a7.611,7.611,0,0,0,2.639-.849A4.776,4.776,0,0,0,39.3,20.773a26.744,26.744,0,0,1-3.851-6.7,25.22,25.22,0,0,1-1.486-7.733h5.216a20.017,20.017,0,0,0,2.79,10.553,19.2,19.2,0,0,0,1.334-4.519,40.164,40.164,0,0,0,.364-6.065h5.156a30.607,30.607,0,0,1-3.912,13.859q-3.776,6.687-9.462,7.46M57.923,5.973a10.89,10.89,0,0,1,4.671.94l-.94,4.034a8.45,8.45,0,0,0-3.275-.728,2.776,2.776,0,0,0-2.275,1,4.307,4.307,0,0,0-.819,2.79c0,2.7,1.092,4.064,3.275,4.064a7.839,7.839,0,0,0,3.214-.728l.788,4.125a10.168,10.168,0,0,1-4.458.849,7.8,7.8,0,0,1-5.914-2.214,8.2,8.2,0,0,1-2.123-5.944,8.391,8.391,0,0,1,2.092-5.974,7.582,7.582,0,0,1,5.792-2.244l-.031.03M71.54,10.007c-1.334,0-2.153.819-2.426,2.426H73.39V12.19a2.463,2.463,0,0,0-.516-1.638,1.663,1.663,0,0,0-1.335-.576Zm6,11.19a12.8,12.8,0,0,1-5.4,1.031,8.342,8.342,0,0,1-6.035-2.244,7.812,7.812,0,0,1-2.3-5.914A8.087,8.087,0,0,1,65.99,8.157,7.54,7.54,0,0,1,71.6,5.913a6.534,6.534,0,0,1,4.882,1.941,6.981,6.981,0,0,1,1.911,5.095,23.118,23.118,0,0,1-.121,2.547H69.326c.394,1.668,1.547,2.487,3.457,2.487a11.007,11.007,0,0,0,4.034-.819l.728,4.034m8.491-3.366a3.8,3.8,0,0,0,1.3.212,2.982,2.982,0,0,0,2.456-.971,4.7,4.7,0,0,0,.789-2.972c0-2.638-1.122-3.942-3.4-3.942a9.237,9.237,0,0,0-1.152.151Zm9.8-3.882a8.4,8.4,0,0,1-2.123,6,7.292,7.292,0,0,1-5.58,2.275,7.6,7.6,0,0,1-2.093-.243v5.641H80.88V7.186a18.076,18.076,0,0,1,6.641-1.243,8.531,8.531,0,0,1,6.1,2.123,7.722,7.722,0,0,1,2.275,5.914l-.061-.03m12.707-2.881a16.752,16.752,0,0,0-4.367-.879c-1.061,0-1.577.212-1.577.667a.687.687,0,0,0,.394.637,9.877,9.877,0,0,0,1.728.576,9.121,9.121,0,0,1,4,1.85,4.334,4.334,0,0,1,1.183,3.275,4.428,4.428,0,0,1-1.82,3.821,8.169,8.169,0,0,1-4.882,1.3,14.335,14.335,0,0,1-5.671-1.061l.667-4.185a12.935,12.935,0,0,0,4.913,1c1.183,0,1.789-.273,1.789-.788a.761.761,0,0,0-.455-.728,16.758,16.758,0,0,0-2.365-.728A7.031,7.031,0,0,1,98.712,14.1a4.28,4.28,0,0,1-1.092-3.093,4.517,4.517,0,0,1,1.638-3.73,7.07,7.07,0,0,1,4.549-1.334,14.637,14.637,0,0,1,5.338.94l-.607,4.185M10.613,14.191,5.341,20.1c-.169.182-.47-.056-.407-.295l1.022-4.249H4.395c-.157,0-.269-.075-.226-.226L5.906,9.616c.025-.1.119-.326.226-.326H9.853a.238.238,0,0,1,.207.357l-1.6,4.03h1.974c.176,0,.314.364.176.514Zm2.155-6.064A8.193,8.193,0,0,0,6.854,5.973a12.669,12.669,0,0,0-1.7.091V0L0,.242V21.167c1.4.758,3.609,1.152,6.641,1.152a8.22,8.22,0,0,0,6.065-2.244,8.244,8.244,0,0,0,2.244-6.1l.03-.03a7.678,7.678,0,0,0-2.214-5.822" transform="translate(0 0.001)"/>
</svg>